<svg width="1200" height="630" viewBox="0 0 1200 630" xmlns="http://www.w3.org/2000/svg"><defs><pattern id="satori_pattern_id_0" x="0" y="0" width="1" height="1" patternUnits="objectBoundingBox"><linearGradient id="satori_biid_0" x1="0" y1="0" x2="0" y2="1"><stop offset="0%" stop-color="#dbf4ff"/><stop offset="100%" stop-color="#fff1f1"/></linearGradient><rect x="0" y="0" width="1200" height="630" fill="url(#satori_biid_0)"/></pattern></defs><mask id="satori_om-id"><rect x="0" y="0" width="1200" height="630" fill="#fff"/></mask><rect x="0" y="0" width="1200" height="630" fill="url(#satori_pattern_id_0)"/><clipPath id="satori_bct-id-0"><path d="M421.3 218.0L421.3 218.0L393.0 218.0L393.0 138.0L421.5 138.0Q433.6 138.0 442.3 142.7Q451.0 147.5 455.7 156.5Q460.5 165.4 460.5 177.9L460.5 177.9Q460.5 190.4 455.7 199.4Q451.0 208.4 442.3 213.2Q433.5 218.0 421.3 218.0ZM409.9 152.5L409.9 203.5L420.6 203.5Q428.1 203.5 433.2 200.8Q438.4 198.1 441.0 192.5Q443.6 186.8 443.6 177.9L443.6 177.9Q443.6 169.0 441.0 163.4Q438.4 157.8 433.3 155.1Q428.1 152.5 420.6 152.5L420.6 152.5L409.9 152.5ZM498.0 219.1L498.0 219.1Q488.7 219.1 482.1 215.4Q475.4 211.6 471.8 204.7Q468.2 197.7 468.2 188.2L468.2 188.2Q468.2 179.0 471.8 172.0Q475.4 165.0 481.9 161.1Q488.5 157.2 497.3 157.2L497.3 157.2Q503.3 157.2 508.4 159.1Q513.5 161.0 517.4 164.8Q521.2 168.5 523.4 174.3Q525.5 180.0 525.5 187.6L525.5 187.6L525.5 192.2L474.9 192.2L474.9 181.9L509.9 181.9Q509.9 178.3 508.3 175.5Q506.7 172.8 504.0 171.2Q501.2 169.6 497.6 169.6L497.6 169.6Q493.8 169.6 490.9 171.3Q488.0 173.1 486.3 176.0Q484.7 178.9 484.7 182.5L484.7 182.5L484.7 192.3Q484.7 196.7 486.3 200.0Q488.0 203.2 491.0 205.0Q494.1 206.7 498.3 206.7L498.3 206.7Q501.0 206.7 503.3 205.9Q505.6 205.1 507.3 203.6Q508.9 202.0 509.8 199.8L509.8 199.8L525.2 200.8Q524 206.3 520.4 210.4Q516.8 214.6 511.1 216.8Q505.4 219.1 498.0 219.1ZM571.0 158.0L588.6 158.0L567.7 218.0L548.9 218.0L527.9 158.0L545.5 158.0L558.0 200.9L558.6 200.9L571.0 158.0ZM620.5 219.1L620.5 219.1Q611.3 219.1 604.6 215.4Q597.9 211.6 594.3 204.7Q590.7 197.7 590.7 188.2L590.7 188.2Q590.7 179.0 594.3 172.0Q597.9 165.0 604.5 161.1Q611.0 157.2 619.8 157.2L619.8 157.2Q625.8 157.2 630.9 159.1Q636.1 161.0 639.9 164.8Q643.8 168.5 645.9 174.3Q648.0 180.0 648.0 187.6L648.0 187.6L648.0 192.2L597.4 192.2L597.4 181.9L632.4 181.9Q632.4 178.3 630.8 175.5Q629.3 172.8 626.5 171.2Q623.8 169.6 620.1 169.6L620.1 169.6Q616.3 169.6 613.4 171.3Q610.5 173.1 608.9 176.0Q607.2 178.9 607.2 182.5L607.2 182.5L607.2 192.3Q607.2 196.7 608.8 200.0Q610.5 203.2 613.6 205.0Q616.6 206.7 620.8 206.7L620.8 206.7Q623.6 206.7 625.9 205.9Q628.2 205.1 629.8 203.6Q631.4 202.0 632.3 199.8L632.3 199.8L647.7 200.8Q646.5 206.3 642.9 210.4Q639.3 214.6 633.6 216.8Q627.9 219.1 620.5 219.1ZM656.9 138.0L673.5 138.0L673.5 218.0L656.9 218.0L656.9 138.0ZM711.9 219.1L711.9 219.1Q702.8 219.1 696.2 215.2Q689.6 211.4 686 204.4Q682.4 197.4 682.4 188.2L682.4 188.2Q682.4 178.9 686 171.9Q689.6 165.0 696.2 161.1Q702.8 157.2 711.9 157.2L711.9 157.2Q721.0 157.2 727.7 161.1Q734.3 165.0 737.9 171.9Q741.5 178.9 741.5 188.2L741.5 188.2Q741.5 197.4 737.9 204.4Q734.3 211.4 727.7 215.2Q721.0 219.1 711.9 219.1ZM712.0 206.2L712.0 206.2Q716.2 206.2 718.9 203.9Q721.7 201.5 723.1 197.4Q724.6 193.3 724.6 188.1L724.6 188.1Q724.6 182.8 723.1 178.7Q721.7 174.6 718.9 172.3Q716.2 169.9 712.0 169.9L712.0 169.9Q707.8 169.9 705.0 172.3Q702.2 174.6 700.7 178.7Q699.3 182.8 699.3 188.1L699.3 188.1Q699.3 193.3 700.7 197.4Q702.2 201.5 705.0 203.9Q707.8 206.2 712.0 206.2ZM767.0 240.5L750.3 240.5L750.3 158.0L766.7 158.0L766.7 168.0L767.5 168.0Q768.6 165.6 770.7 163.1Q772.8 160.6 776.1 158.9Q779.5 157.2 784.5 157.2L784.5 157.2Q791.1 157.2 796.7 160.6Q802.2 164.0 805.5 170.9Q808.8 177.7 808.8 188.0L808.8 188.0Q808.8 198.1 805.6 205.0Q802.4 211.9 796.9 215.4Q791.3 218.9 784.5 218.9L784.5 218.9Q779.7 218.9 776.3 217.3Q772.9 215.7 770.8 213.3Q768.6 210.9 767.5 208.4L767.5 208.4L767.0 208.4L767.0 240.5ZM766.6 188.0L766.6 188.0Q766.6 193.3 768.1 197.3Q769.6 201.3 772.4 203.5Q775.2 205.7 779.2 205.7L779.2 205.7Q783.3 205.7 786.1 203.4Q788.9 201.2 790.4 197.2Q791.9 193.2 791.9 188.0L791.9 188.0Q791.9 182.8 790.4 178.8Q789.0 174.9 786.1 172.6Q783.3 170.4 779.2 170.4L779.2 170.4Q775.2 170.4 772.4 172.6Q769.6 174.7 768.1 178.7Q766.6 182.6 766.6 188.0Z "/></clipPath><defs><pattern id="satori_pattern_id-0_0" x="0" y="0" width="1" height="1" patternUnits="objectBoundingBox"><linearGradient id="satori_biid-0_0" x1="0" y1="0" x2="1" y2="0"><stop offset="0%" stop-color="rgb(0,124,240)"/><stop offset="100%" stop-color="rgb(0,223,216)"/></linearGradient><rect x="0" y="0" width="428" height="133" fill="url(#satori_biid-0_0)"/></pattern></defs><mask id="satori_om-id-0"><rect x="386" y="115" width="428" height="133" fill="#fff"/></mask><rect x="386" y="115" width="428" height="133" fill="url(#satori_pattern_id-0_0)" clip-path="url(#satori_bct-id-0)"/><clipPath id="satori_bct-id-1"><path d="M452.3 351.0L452.3 351.0L424.0 351.0L424.0 271.0L452.5 271.0Q464.6 271.0 473.3 275.7Q482.0 280.5 486.7 289.5Q491.5 298.4 491.5 310.9L491.5 310.9Q491.5 323.4 486.7 332.4Q482.0 341.4 473.3 346.2Q464.5 351.0 452.3 351.0ZM440.9 285.5L440.9 336.5L451.6 336.5Q459.1 336.5 464.2 333.8Q469.4 331.1 472.0 325.5Q474.6 319.8 474.6 310.9L474.6 310.9Q474.6 302.0 472.0 296.4Q469.4 290.8 464.3 288.1Q459.1 285.5 451.6 285.5L451.6 285.5L440.9 285.5ZM529.0 352.1L529.0 352.1Q519.7 352.1 513.1 348.4Q506.4 344.6 502.8 337.7Q499.2 330.7 499.2 321.2L499.2 321.2Q499.2 312.0 502.8 305.0Q506.4 298.0 512.9 294.1Q519.5 290.2 528.3 290.2L528.3 290.2Q534.3 290.2 539.4 292.1Q544.5 294.0 548.4 297.8Q552.2 301.5 554.4 307.3Q556.5 313.0 556.5 320.6L556.5 320.6L556.5 325.2L505.9 325.2L505.9 314.9L540.9 314.9Q540.9 311.3 539.3 308.5Q537.7 305.8 535.0 304.2Q532.2 302.6 528.6 302.6L528.6 302.6Q524.8 302.6 521.9 304.3Q519.0 306.1 517.3 309.0Q515.7 311.9 515.7 315.5L515.7 315.5L515.7 325.3Q515.7 329.7 517.3 333.0Q519.0 336.2 522.0 338.0Q525.1 339.7 529.3 339.7L529.3 339.7Q532.0 339.7 534.3 338.9Q536.6 338.1 538.3 336.6Q539.9 335.0 540.8 332.8L540.8 332.8L556.2 333.8Q555 339.3 551.4 343.4Q547.8 347.6 542.1 349.8Q536.4 352.1 529.0 352.1ZM582.0 373.5L565.4 373.5L565.4 291.0L581.8 291.0L581.8 301.0L582.5 301.0Q583.6 298.6 585.7 296.1Q587.8 293.6 591.2 291.9Q594.6 290.2 599.6 290.2L599.6 290.2Q606.2 290.2 611.7 293.6Q617.3 297.0 620.6 303.9Q623.9 310.7 623.9 321.0L623.9 321.0Q623.9 331.1 620.7 338.0Q617.5 344.9 611.9 348.4Q606.4 351.9 599.6 351.9L599.6 351.9Q594.7 351.9 591.3 350.3Q588.0 348.7 585.8 346.3Q583.7 343.9 582.5 341.4L582.5 341.4L582.0 341.4L582.0 373.5ZM581.7 321.0L581.7 321.0Q581.7 326.3 583.2 330.3Q584.6 334.3 587.5 336.5Q590.3 338.7 594.3 338.7L594.3 338.7Q598.4 338.7 601.2 336.4Q604.0 334.2 605.4 330.2Q606.9 326.2 606.9 321.0L606.9 321.0Q606.9 315.8 605.5 311.8Q604.0 307.9 601.2 305.6Q598.4 303.4 594.3 303.4L594.3 303.4Q590.2 303.4 587.4 305.6Q584.6 307.7 583.2 311.7Q581.7 315.6 581.7 321.0ZM633.0 271.0L649.6 271.0L649.6 351.0L633.0 351.0L633.0 271.0ZM688.0 352.1L688.0 352.1Q678.9 352.1 672.3 348.2Q665.6 344.4 662.0 337.4Q658.5 330.4 658.5 321.2L658.5 321.2Q658.5 311.9 662.0 304.9Q665.6 298.0 672.3 294.1Q678.9 290.2 688.0 290.2L688.0 290.2Q697.1 290.2 703.7 294.1Q710.3 298.0 713.9 304.9Q717.5 311.9 717.5 321.2L717.5 321.2Q717.5 330.4 713.9 337.4Q710.3 344.4 703.7 348.2Q697.1 352.1 688.0 352.1ZM688.1 339.2L688.1 339.2Q692.2 339.2 695.0 336.9Q697.8 334.5 699.2 330.4Q700.6 326.3 700.6 321.1L700.6 321.1Q700.6 315.8 699.2 311.7Q697.8 307.6 695.0 305.3Q692.2 302.9 688.1 302.9L688.1 302.9Q683.9 302.9 681.1 305.3Q678.2 307.6 676.8 311.7Q675.4 315.8 675.4 321.1L675.4 321.1Q675.4 326.3 676.8 330.4Q678.2 334.5 681.1 336.9Q683.9 339.2 688.1 339.2ZM734.7 373.5L734.7 373.5Q731.5 373.5 728.7 373.0Q726.0 372.5 724.2 371.7L724.2 371.7L727.9 359.3Q730.9 360.2 733.2 360.3Q735.6 360.4 737.3 359.2Q739.1 358.0 740.2 355.2L740.2 355.2L741.1 352.7L719.6 291.0L737.1 291.0L749.5 335.0L750.2 335.0L762.7 291.0L780.3 291.0L757 357.4Q755.3 362.3 752.4 365.9Q749.6 369.5 745.2 371.5Q740.8 373.5 734.7 373.5Z "/></clipPath><defs><pattern id="satori_pattern_id-1_0" x="0" y="0" width="1" height="1" patternUnits="objectBoundingBox"><linearGradient id="satori_biid-1_0" x1="0" y1="0" x2="1" y2="0"><stop offset="0%" stop-color="rgb(121,40,202)"/><stop offset="100%" stop-color="rgb(255,0,128)"/></linearGradient><rect x="0" y="0" width="366" height="134" fill="url(#satori_biid-1_0)"/></pattern></defs><mask id="satori_om-id-1"><rect x="417" y="248" width="366" height="134" fill="#fff"/></mask><rect x="417" y="248" width="366" height="134" fill="url(#satori_pattern_id-1_0)" clip-path="url(#satori_bct-id-1)"/><clipPath id="satori_bct-id-2"><path d="M439.0 485.0L439.0 405.0L459.8 405.0L481.8 458.7L482.8 458.7L504.8 405.0L525.7 405.0L525.7 485.0L509.3 485.0L509.3 432.9L508.6 432.9L487.9 484.6L476.7 484.6L456.0 432.7L455.4 432.7L455.4 485.0L439.0 485.0ZM564.6 486.1L564.6 486.1Q555.4 486.1 548.7 482.4Q542.0 478.6 538.4 471.7Q534.8 464.7 534.8 455.2L534.8 455.2Q534.8 446.0 538.4 439.0Q542.0 432.0 548.6 428.1Q555.1 424.2 563.9 424.2L563.9 424.2Q569.9 424.2 575.0 426.1Q580.2 428.0 584.0 431.8Q587.9 435.5 590 441.3Q592.1 447.0 592.1 454.6L592.1 454.6L592.1 459.2L541.5 459.2L541.5 448.9L576.5 448.9Q576.5 445.3 574.9 442.5Q573.4 439.8 570.6 438.2Q567.9 436.6 564.2 436.6L564.2 436.6Q560.4 436.6 557.5 438.3Q554.6 440.1 553.0 443.0Q551.3 445.9 551.3 449.5L551.3 449.5L551.3 459.3Q551.3 463.7 552.9 467.0Q554.6 470.2 557.7 472.0Q560.7 473.7 564.9 473.7L564.9 473.7Q567.7 473.7 570.0 472.9Q572.3 472.1 573.9 470.6Q575.5 469.0 576.4 466.8L576.4 466.8L591.8 467.8Q590.6 473.3 587.0 477.4Q583.4 481.6 577.7 483.8Q572.0 486.1 564.6 486.1ZM617.6 485.0L601.0 485.0L601.0 425.0L617.1 425.0L617.1 435.4L617.8 435.4Q619.4 429.8 623.3 427.0Q627.1 424.1 632.2 424.1L632.2 424.1Q633.4 424.1 634.9 424.3Q636.3 424.4 637.4 424.7L637.4 424.7L637.4 439.5Q636.2 439.1 634.2 438.8Q632.1 438.6 630.4 438.6L630.4 438.6Q626.7 438.6 623.8 440.1Q621.0 441.7 619.3 444.5Q617.6 447.3 617.6 451.0L617.6 451.0L617.6 485.0ZM668.2 508.7L668.2 508.7Q660.1 508.7 654.3 506.5Q648.6 504.3 645.2 500.5Q641.8 496.7 640.8 492.0L640.8 492.0L656.2 489.9Q656.9 491.7 658.4 493.3Q659.9 494.8 662.4 495.8Q664.9 496.8 668.6 496.8L668.6 496.8Q674.0 496.8 677.5 494.1Q681.1 491.5 681.1 485.3L681.1 485.3L681.1 474.3L680.4 474.3Q679.3 476.8 677.1 479.1Q674.9 481.3 671.5 482.7Q668.0 484.1 663.3 484.1L663.3 484.1Q656.5 484.1 651.0 481.0Q645.5 477.8 642.2 471.3Q638.9 464.8 638.9 454.8L638.9 454.8Q638.9 444.6 642.3 437.8Q645.6 431.0 651.1 427.6Q656.6 424.2 663.2 424.2L663.2 424.2Q668.3 424.2 671.7 425.9Q675.1 427.6 677.2 430.1Q679.2 432.6 680.4 435.0L680.4 435.0L681 435.0L681 425.0L697.5 425.0L697.5 485.5Q697.5 493.2 693.8 498.4Q690.0 503.5 683.4 506.1Q676.8 508.7 668.2 508.7ZM668.5 471.6L668.5 471.6Q672.6 471.6 675.4 469.6Q678.1 467.6 679.7 463.8Q681.2 460.0 681.2 454.8L681.2 454.8Q681.2 449.5 679.7 445.6Q678.2 441.7 675.4 439.6Q672.6 437.4 668.5 437.4L668.5 437.4Q664.4 437.4 661.6 439.6Q658.8 441.8 657.4 445.7Q655.9 449.6 655.9 454.8L655.9 454.8Q655.9 460.0 657.4 463.7Q658.9 467.5 661.6 469.6Q664.4 471.6 668.5 471.6ZM736.1 486.1L736.1 486.1Q726.9 486.1 720.2 482.4Q713.6 478.6 710.0 471.7Q706.4 464.7 706.4 455.2L706.4 455.2Q706.4 446.0 710.0 439.0Q713.6 432.0 720.1 428.1Q726.7 424.2 735.5 424.2L735.5 424.2Q741.4 424.2 746.6 426.1Q751.7 428.0 755.5 431.8Q759.4 435.5 761.5 441.3Q763.7 447.0 763.7 454.6L763.7 454.6L763.7 459.2L713.0 459.2L713.0 448.9L748.0 448.9Q748.0 445.3 746.5 442.5Q744.9 439.8 742.1 438.2Q739.4 436.6 735.8 436.6L735.8 436.6Q732.0 436.6 729.1 438.3Q726.1 440.1 724.5 443.0Q722.9 445.9 722.8 449.5L722.8 449.5L722.8 459.3Q722.8 463.7 724.5 467.0Q726.1 470.2 729.2 472.0Q732.2 473.7 736.4 473.7L736.4 473.7Q739.2 473.7 741.5 472.9Q743.8 472.1 745.4 470.6Q747.1 469.0 747.9 466.8L747.9 466.8L763.3 467.8Q762.2 473.3 758.6 477.4Q754.9 481.6 749.3 483.8Q743.6 486.1 736.1 486.1Z "/></clipPath><defs><pattern id="satori_pattern_id-2_0" x="0" y="0" width="1" height="1" patternUnits="objectBoundingBox"><linearGradient id="satori_biid-2_0" x1="0" y1="0" x2="1" y2="0"><stop offset="0%" stop-color="rgb(255,77,77)"/><stop offset="100%" stop-color="rgb(249,203,40)"/></linearGradient><rect x="0" y="0" width="336" height="133" fill="url(#satori_biid-2_0)"/></pattern></defs><mask id="satori_om-id-2"><rect x="432" y="382" width="336" height="133" fill="#fff"/></mask><rect x="432" y="382" width="336" height="133" fill="url(#satori_pattern_id-2_0)" clip-path="url(#satori_bct-id-2)"/></svg>